<!-- <svg width="283" height="64" viewBox="0 0 283 64" fill="none" 
    xmlns="http://www.w3.org/2000/svg">
    <path d="M141.04 16c-11.04 0-19 7.2-19 18s8.96 18 20 18c6.67 0 12.55-2.64 16.19-7.09l-7.65-4.42c-2.02 2.21-5.09 3.5-8.54 3.5-4.79 0-8.86-2.5-10.37-6.5h28.02c.22-1.12.35-2.28.35-3.5 0-10.79-7.96-17.99-19-17.99zm-9.46 14.5c1.25-3.99 4.67-6.5 9.45-6.5 4.79 0 8.21 2.51 9.45 6.5h-18.9zM248.72 16c-11.04 0-19 7.2-19 18s8.96 18 20 18c6.67 0 12.55-2.64 16.19-7.09l-7.65-4.42c-2.02 2.21-5.09 3.5-8.54 3.5-4.79 0-8.86-2.5-10.37-6.5h28.02c.22-1.12.35-2.28.35-3.5 0-10.79-7.96-17.99-19-17.99zm-9.45 14.5c1.25-3.99 4.67-6.5 9.45-6.5 4.79 0 8.21 2.51 9.45 6.5h-18.9zM200.24 34c0 6 3.92 10 10 10 4.12 0 7.21-1.87 8.8-4.92l7.68 4.43c-3.18 5.3-9.14 8.49-16.48 8.49-11.05 0-19-7.2-19-18s7.96-18 19-18c7.34 0 13.29 3.19 16.48 8.49l-7.68 4.43c-1.59-3.05-4.68-4.92-8.8-4.92-6.07 0-10 4-10 10zm82.48-29v46h-9V5h9zM36.95 0L73.9 64H0L36.95 0zm92.38 5l-27.71 48L73.91 5H84.3l17.32 30 17.32-30h10.39zm58.91 12v9.69c-1-.29-2.06-.49-3.2-.49-5.81 0-10 4-10 10V51h-9V17h9v9.2c0-5.08 5.91-9.2 13.2-9.2z" fill="#000"/>
</svg> -->

<svg viewBox="0 0 32 32" class="whatsapp-ico"><path d=" M19.11 17.205c-.372 0-1.088 1.39-1.518 1.39a.63.63 0 0 1-.315-.1c-.802-.402-1.504-.817-2.163-1.447-.545-.516-1.146-1.29-1.46-1.963a.426.426 0 0 1-.073-.215c0-.33.99-.945.99-1.49 0-.143-.73-2.09-.832-2.335-.143-.372-.214-.487-.6-.487-.187 0-.36-.043-.53-.043-.302 0-.53.115-.746.315-.688.645-1.032 1.318-1.06 2.264v.114c-.015.99.472 1.977 1.017 2.78 1.23 1.82 2.506 3.41 4.554 4.34.616.287 2.035.888 2.722.888.817 0 2.15-.515 2.478-1.318.13-.33.244-.73.244-1.088 0-.058 0-.144-.03-.215-.1-.172-2.434-1.39-2.678-1.39zm-2.908 7.593c-1.747 0-3.48-.53-4.942-1.49L7.793 24.41l1.132-3.337a8.955 8.955 0 0 1-1.72-5.272c0-4.955 4.04-8.995 8.997-8.995S25.2 10.845 25.2 15.8c0 4.958-4.04 8.998-8.998 8.998zm0-19.798c-5.96 0-10.8 4.842-10.8 10.8 0 1.964.53 3.898 1.546 5.574L5 27.176l5.974-1.92a10.807 10.807 0 0 0 16.03-9.455c0-5.958-4.842-10.8-10.802-10.8z" fill-rule="evenodd"></path></svg>